Coordinates
version=1
nRows=17
nColumns=24
inDegrees=yes

Units are S.I. units (second, meters, Newtons, ...)
Angles are in degrees.

endheader
time	pelvis_tilt	pelvis_list	pelvis_rotation	pelvis_tx	pelvis_ty	pelvis_tz	hip_flexion_r	hip_adduction_r	hip_rotation_r	knee_angle_r	ankle_angle_r	subtalar_angle_r	mtp_angle_r	hip_flexion_l	hip_adduction_l	hip_rotation_l	knee_angle_l	ankle_angle_l	subtalar_angle_l	mtp_angle_l	lumbar_extension	lumbar_bending	lumbar_rotation
      3.95000000	     -9.65305716	     10.49551071	     -2.90002117	     -0.76856252	     -0.04064798	      0.42155730	     13.48296845	    -11.73032556	      6.16746113	    -58.67784592	    -12.96701557	     17.51531791	     29.46202244	     29.87858311	     14.16489938	      4.19692747	    -25.25118970	     -2.81281068	     -5.38380032	     -0.11370961	      9.13262266	    -10.81515581	     13.53005579
      3.95500000	     -9.61362622	     10.47950901	     -2.83804827	     -0.76163029	     -0.03945276	      0.42113973	     14.53139104	    -11.68426400	      6.36252610	    -59.70089206	    -12.68534348	     18.11302677	     29.95894040	     29.20004382	     14.22486702	      4.26932897	    -24.96057209	     -2.36769616	     -5.13790470	      0.12192128	      8.99380545	    -10.79708491	     13.28870572
      3.96000000	     -9.58599803	     10.42125411	     -2.80456397	     -0.75482328	     -0.03823602	      0.42076982	     15.60014914	    -11.57131186	      6.57808115	    -60.64470045	    -12.36562020	     18.77719053	     30.53567528	     28.54610089	     14.22370318	      4.32159620	    -24.68177760	     -1.95425843	     -4.90366556	      0.34187236	      8.85641540	    -10.72848645	     13.08049228
      3.96500000	     -9.66869155	     10.35207316	     -2.82322423	     -0.74814150	     -0.03711864	      0.42047975	     16.82311700	    -11.40372181	      6.84785816	    -61.50090970	    -12.17118863	     19.24335171	     31.63518332	     28.03334982	     14.16739885	      4.29732042	    -24.41372413	     -1.57950870	     -4.68444288	      0.52096082	      8.84106657	    -10.62775023	     12.95423683
      3.97000000	     -9.59216996	     10.24390570	     -2.75381343	     -0.74128794	     -0.03577572	      0.42007849	     17.77591811	    -11.23866945	      6.96871781	    -62.25090669	    -11.80234886	     19.83789374	     32.07516706	     27.27758967	     14.14857852	      4.48464162	    -24.07831618	     -1.20864341	     -4.52181070	      0.67443281	      8.65771136	    -10.51102061	     12.70385603
      3.97500000	     -9.56191535	     10.14447947	     -2.73422304	     -0.73459715	     -0.03450731	      0.41974361	     18.81293462	    -11.04537522	      7.15675390	    -62.95247761	    -11.43866358	     20.35749576	     32.62835030	     26.60349579	     14.10387471	      4.57743125	    -23.76076040	     -0.89625702	     -4.39030555	      0.77635991	      8.51291395	    -10.38966773	     12.49056795
      3.98000000	     -9.55433908	     10.02521282	     -2.70294541	     -0.72782068	     -0.03323655	      0.41939483	     19.84135934	    -10.82448525	      7.31057948	    -63.55606608	    -11.09698216	     20.72917965	     33.16146396	     25.92034332	     14.04875400	      4.73963492	    -23.40149484	     -0.59257279	     -4.31430417	      0.82693502	      8.41481296	    -10.24478466	     12.28941898
      3.98500000	     -9.54326936	      9.88624521	     -2.65721736	     -0.72103688	     -0.03195954	      0.41901718	     20.83936774	    -10.57892424	      7.43100981	    -64.07717682	    -10.76028484	     20.94914901	     33.61951173	     25.21834368	     13.98751196	      4.96855038	    -23.02717332	     -0.31494523	     -4.29950253	      0.82010325	      8.31208508	    -10.07824680	     12.08930599
      3.99000000	     -9.50523844	      9.75275705	     -2.62402176	     -0.71420231	     -0.03064631	      0.41870254	     21.78819394	    -10.32839843	      7.51852298	    -64.52855660	    -10.41843982	     20.91491479	     33.80275216	     24.46126055	     13.92606680	      5.21163192	    -22.60367561	     -0.08879130	     -4.32807187	      0.80502563	      8.20172181	     -9.92071621	     11.90730274
      3.99500000	     -9.49254884	      9.56742431	     -2.53117356	     -0.70740407	     -0.02939046	      0.41824137	     22.72148925	    -10.04146125	      7.55798152	    -64.88960691	    -10.06531533	     20.89514904	     34.04935357	     23.73024280	     13.84850585	      5.55383125	    -22.20016539	      0.15011136	     -4.44533851	      0.70696380	      8.09652912	     -9.71004572	     11.69182807
      4.00000000	     -9.46634310	      9.37382493	     -2.41448829	     -0.70064221	     -0.02810771	      0.41776563	     23.61531439	     -9.75485865	      7.54023539	    -65.16643763	     -9.75635869	     20.62485783	     34.24457427	     22.97684395	     13.77645771	      5.96360668	    -21.78953145	      0.31576554	     -4.62936883	      0.46149166	      7.97283718	     -9.49877400	     11.37528263
      4.00500000	     -9.42696002	      9.17201162	     -2.29870124	     -0.69382674	     -0.02683044	      0.41727807	     24.46574604	     -9.46310492	      7.50146090	    -65.36415237	     -9.43877901	     20.22169069	     34.29127288	     22.19232786	     13.69333196	      6.38064021	    -21.35218931	      0.49222809	     -4.82012971	      0.21033606	      7.84840047	     -9.27462961	     11.11042200
      4.01000000	     -9.38459312	      8.94856203	     -2.16327952	     -0.68700287	     -0.02556840	      0.41677202	     25.28397311	     -9.16322224	      7.41200470	    -65.48576713	     -9.13957089	     19.68297556	     34.20911915	     21.39484494	     13.59433982	      6.85711341	    -20.90796225	      0.64999124	     -5.05483102	     -0.07510281	      7.72536040	     -9.03246893	     10.82200727
      4.01500000	     -9.33599507	      8.70680710	     -1.98772499	     -0.68016983	     -0.02429938	      0.41621044	     26.05371839	     -8.86705278	      7.26580818	    -65.51733626	     -8.85915601	     19.00440140	     33.99999640	     20.57952467	     13.48827685	      7.37748747	    -20.45062696	      0.78377158	     -5.31833628	     -0.41960338	      7.58814384	     -8.77812340	     10.49798769
      4.02000000	     -9.24506055	      8.45979128	     -1.77197977	     -0.67332091	     -0.02301374	      0.41556884	     26.73673035	     -8.61034322	      7.04044477	    -65.46916275	     -8.53859745	     18.24559901	     33.61057027	     19.71211079	     13.39088750	      7.93275048	    -19.99521990	      0.93398695	     -5.57320014	     -0.87398183	      7.40516556	     -8.52006205	     10.13378814
      4.02500000	     -9.13173411	      8.17807347	     -1.57420613	     -0.66644880	     -0.02170074	      0.41496448	     27.37116965	     -8.31584608	      6.81376446	    -65.35091115	     -8.25323604	     17.49384903	     32.90559727	     18.80380961	     13.24229446	      8.52265809	    -19.52394368	      1.14559713	     -5.79066770	     -1.46877118	      7.21660246	     -8.23061069	      9.78950255
      4.03000000	     -9.15534139	      7.90475466	     -1.37229378	     -0.65966767	     -0.02057961	      0.41440094	     28.15893343	     -8.02611560	      6.57161801	    -65.15254368	     -8.12104861	     16.44618260	     32.51079384	     18.07163714	     13.07064290	      9.02048203	    -19.04836993	      1.23054250	     -6.03011369	     -1.72379629	      7.16695626	     -7.94573255	      9.45874651
